<svg xmlns="http://www.w3.org/2000/svg" width="655" height="469" viewBox="0 0 655 469" fill="none"><circle cx="224" cy="20" r="7" fill="#7AD9D7"></circle><circle cx="312" cy="239" r="152.5" stroke="#DCDCDC"></circle><circle cx="311.5" cy="234.5" r="79.75" stroke="#DCDCDC" stroke-width="1.5"></circle><circle cx="312.5" cy="234.5" r="234.15" stroke="#DCDCDC" stroke-width="0.7"></circle><path d="M159 224H49.5C22.1619 224 0 246.162 0 273.5C0 300.838 22.1619 323 49.5 323H99.375C132.305 323 159 296.305 159 263.375V224Z" fill="#F3F3F3"></path><path d="M70.792 267.436V269.47H67.444V280H64.924V269.47H61.576V267.436H70.792ZM73.9087 268.84C73.4647 268.84 73.0927 268.702 72.7927 268.426C72.5047 268.138 72.3607 267.784 72.3607 267.364C72.3607 266.944 72.5047 266.596 72.7927 266.32C73.0927 266.032 73.4647 265.888 73.9087 265.888C74.3527 265.888 74.7187 266.032 75.0067 266.32C75.3067 266.596 75.4567 266.944 75.4567 267.364C75.4567 267.784 75.3067 268.138 75.0067 268.426C74.7187 268.702 74.3527 268.84 73.9087 268.84ZM75.1507 270.028V280H72.6307V270.028H75.1507ZM83.5444 280L80.1604 275.752V280H77.6404V266.68H80.1604V274.258L83.5084 270.028H86.7844L82.3924 275.032L86.8204 280H83.5444ZM96.7022 267.436V269.47H93.3542V280H90.8342V269.47H87.4862V267.436H96.7022ZM102.969 280.162C102.009 280.162 101.145 279.952 100.377 279.532C99.6088 279.1 99.0028 278.494 98.5588 277.714C98.1268 276.934 97.9108 276.034 97.9108 275.014C97.9108 273.994 98.1328 273.094 98.5768 272.314C99.0328 271.534 99.6508 270.934 100.431 270.514C101.211 270.082 102.081 269.866 103.041 269.866C104.001 269.866 104.871 270.082 105.651 270.514C106.431 270.934 107.043 271.534 107.487 272.314C107.943 273.094 108.171 273.994 108.171 275.014C108.171 276.034 107.937 276.934 107.469 277.714C107.013 278.494 106.389 279.1 105.597 279.532C104.817 279.952 103.941 280.162 102.969 280.162ZM102.969 277.966C103.425 277.966 103.851 277.858 104.247 277.642C104.655 277.414 104.979 277.078 105.219 276.634C105.459 276.19 105.579 275.65 105.579 275.014C105.579 274.066 105.327 273.34 104.823 272.836C104.331 272.32 103.725 272.062 103.005 272.062C102.285 272.062 101.679 272.32 101.187 272.836C100.707 273.34 100.467 274.066 100.467 275.014C100.467 275.962 100.701 276.694 101.169 277.21C101.649 277.714 102.249 277.966 102.969 277.966ZM115.923 280L112.539 275.752V280H110.019V266.68H112.539V274.258L115.887 270.028H119.163L114.771 275.032L119.199 280H115.923Z" fill="black"></path><circle cx="159" cy="223" r="7" fill="#7AD9D7"></circle><path d="M224 20H80C54.5949 20 34 40.5949 34 66C34 91.4051 54.5949 112 80 112H164C197.137 112 224 85.1371 224 52V20Z" fill="#E7F7F7"></path><path d="M109.985 59.832V71H107.745V59.832H109.985ZM117.11 62.008C118.166 62.008 119.02 62.344 119.67 63.016C120.321 63.6773 120.646 64.6053 120.646 65.8V71H118.406V66.104C118.406 65.4 118.23 64.8613 117.878 64.488C117.526 64.104 117.046 63.912 116.438 63.912C115.82 63.912 115.329 64.104 114.966 64.488C114.614 64.8613 114.438 65.4 114.438 66.104V71H112.198V62.136H114.438V63.24C114.737 62.856 115.116 62.5573 115.574 62.344C116.044 62.12 116.556 62.008 117.11 62.008ZM126.168 71.144C125.443 71.144 124.792 71.016 124.216 70.76C123.64 70.4933 123.182 70.136 122.84 69.688C122.51 69.24 122.328 68.744 122.296 68.2H124.552C124.595 68.5413 124.76 68.824 125.048 69.048C125.347 69.272 125.715 69.384 126.152 69.384C126.579 69.384 126.91 69.2987 127.144 69.128C127.39 68.9573 127.512 68.7387 127.512 68.472C127.512 68.184 127.363 67.9707 127.064 67.832C126.776 67.6827 126.312 67.5227 125.672 67.352C125.011 67.192 124.467 67.0267 124.04 66.856C123.624 66.6853 123.262 66.424 122.952 66.072C122.654 65.72 122.504 65.2453 122.504 64.648C122.504 64.1573 122.643 63.7093 122.92 63.304C123.208 62.8987 123.614 62.5787 124.136 62.344C124.67 62.1093 125.294 61.992 126.008 61.992C127.064 61.992 127.907 62.2587 128.536 62.792C129.166 63.3147 129.512 64.024 129.576 64.92H127.432C127.4 64.568 127.251 64.2907 126.984 64.088C126.728 63.8747 126.382 63.768 125.944 63.768C125.539 63.768 125.224 63.8427 125 63.992C124.787 64.1413 124.68 64.3493 124.68 64.616C124.68 64.9147 124.83 65.144 125.128 65.304C125.427 65.4533 125.891 65.608 126.52 65.768C127.16 65.928 127.688 66.0933 128.104 66.264C128.52 66.4347 128.878 66.7013 129.176 67.064C129.486 67.416 129.646 67.8853 129.656 68.472C129.656 68.984 129.512 69.4427 129.224 69.848C128.947 70.2533 128.542 70.5733 128.008 70.808C127.486 71.032 126.872 71.144 126.168 71.144ZM134.103 63.976V68.264C134.103 68.5627 134.172 68.7813 134.311 68.92C134.46 69.048 134.706 69.112 135.047 69.112H136.087V71H134.679C132.791 71 131.847 70.0827 131.847 68.248V63.976H130.791V62.136H131.847V59.944H134.103V62.136H136.087V63.976H134.103ZM137.122 66.536C137.122 65.64 137.298 64.8453 137.65 64.152C138.013 63.4587 138.498 62.9253 139.106 62.552C139.725 62.1787 140.413 61.992 141.17 61.992C141.832 61.992 142.408 62.1253 142.898 62.392C143.4 62.6587 143.8 62.9947 144.098 63.4V62.136H146.354V71H144.098V69.704C143.81 70.12 143.41 70.4667 142.898 70.744C142.397 71.0107 141.816 71.144 141.154 71.144C140.408 71.144 139.725 70.952 139.106 70.568C138.498 70.184 138.013 69.6453 137.65 68.952C137.298 68.248 137.122 67.4427 137.122 66.536ZM144.098 66.568C144.098 66.024 143.992 65.56 143.778 65.176C143.565 64.7813 143.277 64.4827 142.914 64.28C142.552 64.0667 142.162 63.96 141.746 63.96C141.33 63.96 140.946 64.0613 140.594 64.264C140.242 64.4667 139.954 64.7653 139.73 65.16C139.517 65.544 139.41 66.0027 139.41 66.536C139.41 67.0693 139.517 67.5387 139.73 67.944C139.954 68.3387 140.242 68.6427 140.594 68.856C140.957 69.0693 141.341 69.176 141.746 69.176C142.162 69.176 142.552 69.0747 142.914 68.872C143.277 68.6587 143.565 68.36 143.778 67.976C143.992 67.5813 144.098 67.112 144.098 66.568ZM152.014 61.992C152.675 61.992 153.257 62.1253 153.758 62.392C154.259 62.648 154.654 62.984 154.942 63.4V62.136H157.198V71.064C157.198 71.8853 157.033 72.616 156.702 73.256C156.371 73.9067 155.875 74.4187 155.214 74.792C154.553 75.176 153.753 75.368 152.814 75.368C151.555 75.368 150.521 75.0747 149.71 74.488C148.91 73.9013 148.457 73.1013 148.35 72.088H150.574C150.691 72.4933 150.942 72.8133 151.326 73.048C151.721 73.2933 152.195 73.416 152.75 73.416C153.401 73.416 153.929 73.2187 154.334 72.824C154.739 72.44 154.942 71.8533 154.942 71.064V69.688C154.654 70.104 154.254 70.4507 153.742 70.728C153.241 71.0053 152.665 71.144 152.014 71.144C151.267 71.144 150.585 70.952 149.966 70.568C149.347 70.184 148.857 69.6453 148.494 68.952C148.142 68.248 147.966 67.4427 147.966 66.536C147.966 65.64 148.142 64.8453 148.494 64.152C148.857 63.4587 149.342 62.9253 149.95 62.552C150.569 62.1787 151.257 61.992 152.014 61.992ZM154.942 66.568C154.942 66.024 154.835 65.56 154.622 65.176C154.409 64.7813 154.121 64.4827 153.758 64.28C153.395 64.0667 153.006 63.96 152.59 63.96C152.174 63.96 151.79 64.0613 151.438 64.264C151.086 64.4667 150.798 64.7653 150.574 65.16C150.361 65.544 150.254 66.0027 150.254 66.536C150.254 67.0693 150.361 67.5387 150.574 67.944C150.798 68.3387 151.086 68.6427 151.438 68.856C151.801 69.0693 152.185 69.176 152.59 69.176C153.006 69.176 153.395 69.0747 153.758 68.872C154.121 68.6587 154.409 68.36 154.622 67.976C154.835 67.5813 154.942 67.112 154.942 66.568ZM161.626 63.512C161.914 63.0427 162.287 62.6747 162.746 62.408C163.215 62.1413 163.748 62.008 164.346 62.008V64.36H163.754C163.05 64.36 162.516 64.5253 162.154 64.856C161.802 65.1867 161.626 65.7627 161.626 66.584V71H159.386V62.136H161.626V63.512ZM165.278 66.536C165.278 65.64 165.454 64.8453 165.806 64.152C166.169 63.4587 166.654 62.9253 167.262 62.552C167.881 62.1787 168.569 61.992 169.326 61.992C169.988 61.992 170.564 62.1253 171.054 62.392C171.556 62.6587 171.956 62.9947 172.254 63.4V62.136H174.51V71H172.254V69.704C171.966 70.12 171.566 70.4667 171.054 70.744C170.553 71.0107 169.972 71.144 169.31 71.144C168.564 71.144 167.881 70.952 167.262 70.568C166.654 70.184 166.169 69.6453 165.806 68.952C165.454 68.248 165.278 67.4427 165.278 66.536ZM172.254 66.568C172.254 66.024 172.148 65.56 171.934 65.176C171.721 64.7813 171.433 64.4827 171.07 64.28C170.708 64.0667 170.318 63.96 169.902 63.96C169.486 63.96 169.102 64.0613 168.75 64.264C168.398 64.4667 168.11 64.7653 167.886 65.16C167.673 65.544 167.566 66.0027 167.566 66.536C167.566 67.0693 167.673 67.5387 167.886 67.944C168.11 68.3387 168.398 68.6427 168.75 68.856C169.113 69.0693 169.497 69.176 169.902 69.176C170.318 69.176 170.708 69.0747 171.07 68.872C171.433 68.6587 171.721 68.36 171.934 67.976C172.148 67.5813 172.254 67.112 172.254 66.568ZM187.706 62.008C188.794 62.008 189.669 62.344 190.33 63.016C191.002 63.6773 191.338 64.6053 191.338 65.8V71H189.098V66.104C189.098 65.4107 188.922 64.8827 188.57 64.52C188.218 64.1467 187.738 63.96 187.13 63.96C186.522 63.96 186.037 64.1467 185.674 64.52C185.322 64.8827 185.146 65.4107 185.146 66.104V71H182.906V66.104C182.906 65.4107 182.73 64.8827 182.378 64.52C182.026 64.1467 181.546 63.96 180.938 63.96C180.32 63.96 179.829 64.1467 179.466 64.52C179.114 64.8827 178.938 65.4107 178.938 66.104V71H176.698V62.136H178.938V63.208C179.226 62.8347 179.594 62.5413 180.042 62.328C180.501 62.1147 181.002 62.008 181.546 62.008C182.24 62.008 182.858 62.1573 183.402 62.456C183.946 62.744 184.368 63.16 184.666 63.704C184.954 63.192 185.37 62.7813 185.914 62.472C186.469 62.1627 187.066 62.008 187.706 62.008Z" fill="black"></path><path d="M513 113H622C640.225 113 655 127.775 655 146C655 164.225 640.225 179 622 179H553C530.909 179 513 161.091 513 139V113Z" fill="#F3F3F3"></path><path d="M452 304H567.5C594.838 304 617 326.162 617 353.5C617 380.838 594.838 403 567.5 403H512C478.863 403 452 376.137 452 343V304Z" fill="#F3F3F3"></path><path d="M580.736 140.228L577.432 146.598V150H575.472V146.598L572.154 140.228H574.366L576.466 144.694L578.552 140.228H580.736ZM585.31 150.126C584.564 150.126 583.892 149.963 583.294 149.636C582.697 149.3 582.226 148.829 581.88 148.222C581.544 147.615 581.376 146.915 581.376 146.122C581.376 145.329 581.549 144.629 581.894 144.022C582.249 143.415 582.73 142.949 583.336 142.622C583.943 142.286 584.62 142.118 585.366 142.118C586.113 142.118 586.79 142.286 587.396 142.622C588.003 142.949 588.479 143.415 588.824 144.022C589.179 144.629 589.356 145.329 589.356 146.122C589.356 146.915 589.174 147.615 588.81 148.222C588.456 148.829 587.97 149.3 587.354 149.636C586.748 149.963 586.066 150.126 585.31 150.126ZM585.31 148.418C585.665 148.418 585.996 148.334 586.304 148.166C586.622 147.989 586.874 147.727 587.06 147.382C587.247 147.037 587.34 146.617 587.34 146.122C587.34 145.385 587.144 144.82 586.752 144.428C586.37 144.027 585.898 143.826 585.338 143.826C584.778 143.826 584.307 144.027 583.924 144.428C583.551 144.82 583.364 145.385 583.364 146.122C583.364 146.859 583.546 147.429 583.91 147.83C584.284 148.222 584.75 148.418 585.31 148.418ZM598.116 142.244V150H596.142V149.02C595.89 149.356 595.559 149.622 595.148 149.818C594.747 150.005 594.308 150.098 593.832 150.098C593.225 150.098 592.689 149.972 592.222 149.72C591.755 149.459 591.387 149.081 591.116 148.586C590.855 148.082 590.724 147.485 590.724 146.794V142.244H592.684V146.514C592.684 147.13 592.838 147.606 593.146 147.942C593.454 148.269 593.874 148.432 594.406 148.432C594.947 148.432 595.372 148.269 595.68 147.942C595.988 147.606 596.142 147.13 596.142 146.514V142.244H598.116ZM606.7 140.228V141.81H604.096V150H602.136V141.81H599.532V140.228H606.7ZM615.452 142.244V150H613.478V149.02C613.226 149.356 612.895 149.622 612.484 149.818C612.083 150.005 611.644 150.098 611.168 150.098C610.561 150.098 610.025 149.972 609.558 149.72C609.091 149.459 608.723 149.081 608.452 148.586C608.191 148.082 608.06 147.485 608.06 146.794V142.244H610.02V146.514C610.02 147.13 610.174 147.606 610.482 147.942C610.79 148.269 611.21 148.432 611.742 148.432C612.283 148.432 612.708 148.269 613.016 147.942C613.324 147.606 613.478 147.13 613.478 146.514V142.244H615.452ZM619.346 143.378C619.598 143.005 619.943 142.701 620.382 142.468C620.83 142.235 621.339 142.118 621.908 142.118C622.571 142.118 623.168 142.281 623.7 142.608C624.241 142.935 624.666 143.401 624.974 144.008C625.291 144.605 625.45 145.301 625.45 146.094C625.45 146.887 625.291 147.592 624.974 148.208C624.666 148.815 624.241 149.286 623.7 149.622C623.168 149.958 622.571 150.126 621.908 150.126C621.329 150.126 620.821 150.014 620.382 149.79C619.953 149.557 619.607 149.258 619.346 148.894V150H617.386V139.64H619.346V143.378ZM623.448 146.094C623.448 145.627 623.35 145.226 623.154 144.89C622.967 144.545 622.715 144.283 622.398 144.106C622.09 143.929 621.754 143.84 621.39 143.84C621.035 143.84 620.699 143.933 620.382 144.12C620.074 144.297 619.822 144.559 619.626 144.904C619.439 145.249 619.346 145.655 619.346 146.122C619.346 146.589 619.439 146.995 619.626 147.34C619.822 147.685 620.074 147.951 620.382 148.138C620.699 148.315 621.035 148.404 621.39 148.404C621.754 148.404 622.09 148.311 622.398 148.124C622.715 147.937 622.967 147.671 623.154 147.326C623.35 146.981 623.448 146.57 623.448 146.094ZM634.084 145.954C634.084 146.234 634.066 146.486 634.028 146.71H628.358C628.405 147.27 628.601 147.709 628.946 148.026C629.292 148.343 629.716 148.502 630.22 148.502C630.948 148.502 631.466 148.189 631.774 147.564H633.888C633.664 148.311 633.235 148.927 632.6 149.412C631.966 149.888 631.186 150.126 630.262 150.126C629.516 150.126 628.844 149.963 628.246 149.636C627.658 149.3 627.196 148.829 626.86 148.222C626.534 147.615 626.37 146.915 626.37 146.122C626.37 145.319 626.534 144.615 626.86 144.008C627.187 143.401 627.644 142.935 628.232 142.608C628.82 142.281 629.497 142.118 630.262 142.118C631 142.118 631.658 142.277 632.236 142.594C632.824 142.911 633.277 143.364 633.594 143.952C633.921 144.531 634.084 145.198 634.084 145.954ZM632.054 145.394C632.045 144.89 631.863 144.489 631.508 144.19C631.154 143.882 630.72 143.728 630.206 143.728C629.721 143.728 629.31 143.877 628.974 144.176C628.648 144.465 628.447 144.871 628.372 145.394H632.054Z" fill="black"></path><path d="M524.58 360.126C523.704 360.126 522.912 359.976 522.204 359.676C521.508 359.376 520.956 358.944 520.548 358.38C520.14 357.816 519.93 357.15 519.918 356.382H522.618C522.654 356.898 522.834 357.306 523.158 357.606C523.494 357.906 523.95 358.056 524.526 358.056C525.114 358.056 525.576 357.918 525.912 357.642C526.248 357.354 526.416 356.982 526.416 356.526C526.416 356.154 526.302 355.848 526.074 355.608C525.846 355.368 525.558 355.182 525.21 355.05C524.874 354.906 524.406 354.75 523.806 354.582C522.99 354.342 522.324 354.108 521.808 353.88C521.304 353.64 520.866 353.286 520.494 352.818C520.134 352.338 519.954 351.702 519.954 350.91C519.954 350.166 520.14 349.518 520.512 348.966C520.884 348.414 521.406 347.994 522.078 347.706C522.75 347.406 523.518 347.256 524.382 347.256C525.678 347.256 526.728 347.574 527.532 348.21C528.348 348.834 528.798 349.71 528.882 350.838H526.11C526.086 350.406 525.9 350.052 525.552 349.776C525.216 349.488 524.766 349.344 524.202 349.344C523.71 349.344 523.314 349.47 523.014 349.722C522.726 349.974 522.582 350.34 522.582 350.82C522.582 351.156 522.69 351.438 522.906 351.666C523.134 351.882 523.41 352.062 523.734 352.206C524.07 352.338 524.538 352.494 525.138 352.674C525.954 352.914 526.62 353.154 527.136 353.394C527.652 353.634 528.096 353.994 528.468 354.474C528.84 354.954 529.026 355.584 529.026 356.364C529.026 357.036 528.852 357.66 528.504 358.236C528.156 358.812 527.646 359.274 526.974 359.622C526.302 359.958 525.504 360.126 524.58 360.126ZM533.731 351.468C534.055 351.012 534.499 350.634 535.063 350.334C535.639 350.022 536.293 349.866 537.025 349.866C537.877 349.866 538.645 350.076 539.329 350.496C540.025 350.916 540.571 351.516 540.967 352.296C541.375 353.064 541.579 353.958 541.579 354.978C541.579 355.998 541.375 356.904 540.967 357.696C540.571 358.476 540.025 359.082 539.329 359.514C538.645 359.946 537.877 360.162 537.025 360.162C536.293 360.162 535.645 360.012 535.081 359.712C534.529 359.412 534.079 359.034 533.731 358.578V364.752H531.211V350.028H533.731V351.468ZM539.005 354.978C539.005 354.378 538.879 353.862 538.627 353.43C538.387 352.986 538.063 352.65 537.655 352.422C537.259 352.194 536.827 352.08 536.359 352.08C535.903 352.08 535.471 352.2 535.063 352.44C534.667 352.668 534.343 353.004 534.091 353.448C533.851 353.892 533.731 354.414 533.731 355.014C533.731 355.614 533.851 356.136 534.091 356.58C534.343 357.024 534.667 357.366 535.063 357.606C535.471 357.834 535.903 357.948 536.359 357.948C536.827 357.948 537.259 357.828 537.655 357.588C538.063 357.348 538.387 357.006 538.627 356.562C538.879 356.118 539.005 355.59 539.005 354.978ZM547.838 360.162C546.878 360.162 546.014 359.952 545.246 359.532C544.478 359.1 543.872 358.494 543.428 357.714C542.996 356.934 542.78 356.034 542.78 355.014C542.78 353.994 543.002 353.094 543.446 352.314C543.902 351.534 544.52 350.934 545.3 350.514C546.08 350.082 546.95 349.866 547.91 349.866C548.87 349.866 549.74 350.082 550.52 350.514C551.3 350.934 551.912 351.534 552.356 352.314C552.812 353.094 553.04 353.994 553.04 355.014C553.04 356.034 552.806 356.934 552.338 357.714C551.882 358.494 551.258 359.1 550.466 359.532C549.686 359.952 548.81 360.162 547.838 360.162ZM547.838 357.966C548.294 357.966 548.72 357.858 549.116 357.642C549.524 357.414 549.848 357.078 550.088 356.634C550.328 356.19 550.448 355.65 550.448 355.014C550.448 354.066 550.196 353.34 549.692 352.836C549.2 352.32 548.594 352.062 547.874 352.062C547.154 352.062 546.548 352.32 546.056 352.836C545.576 353.34 545.336 354.066 545.336 355.014C545.336 355.962 545.57 356.694 546.038 357.21C546.518 357.714 547.118 357.966 547.838 357.966ZM557.822 352.098V356.922C557.822 357.258 557.9 357.504 558.056 357.66C558.224 357.804 558.5 357.876 558.884 357.876H560.054V360H558.47C556.346 360 555.284 358.968 555.284 356.904V352.098H554.096V350.028H555.284V347.562H557.822V350.028H560.054V352.098H557.822ZM563.145 348.84C562.701 348.84 562.329 348.702 562.029 348.426C561.741 348.138 561.597 347.784 561.597 347.364C561.597 346.944 561.741 346.596 562.029 346.32C562.329 346.032 562.701 345.888 563.145 345.888C563.589 345.888 563.955 346.032 564.243 346.32C564.543 346.596 564.693 346.944 564.693 347.364C564.693 347.784 564.543 348.138 564.243 348.426C563.955 348.702 563.589 348.84 563.145 348.84ZM564.387 350.028V360H561.867V350.028H564.387ZM571.449 352.098H569.703V360H567.147V352.098H566.013V350.028H567.147V349.524C567.147 348.3 567.495 347.4 568.191 346.824C568.887 346.248 569.937 345.978 571.341 346.014V348.138C570.729 348.126 570.303 348.228 570.063 348.444C569.823 348.66 569.703 349.05 569.703 349.614V350.028H571.449V352.098ZM582.622 350.028L576.448 364.716H573.766L575.926 359.748L571.93 350.028H574.756L577.33 356.994L579.94 350.028H582.622Z" fill="black"></path><circle cx="512" cy="113" r="7" fill="#7AD9D7"></circle><circle cx="451" cy="304" r="7" fill="#7AD9D7"></circle><path d="M240 106H345C363.225 106 378 120.775 378 139C378 157.225 363.225 172 345 172H279.429C257.653 172 240 154.347 240 132.571V106Z" fill="#F3F3F3"></path><path d="M295.253 134.228V135.81H291.179V138.316H294.301V139.87H291.179V144H289.219V134.228H295.253ZM296.139 140.094C296.139 139.31 296.293 138.615 296.601 138.008C296.918 137.401 297.343 136.935 297.875 136.608C298.416 136.281 299.018 136.118 299.681 136.118C300.259 136.118 300.763 136.235 301.193 136.468C301.631 136.701 301.981 136.995 302.243 137.35V136.244H304.217V144H302.243V142.866C301.991 143.23 301.641 143.533 301.193 143.776C300.754 144.009 300.245 144.126 299.667 144.126C299.013 144.126 298.416 143.958 297.875 143.622C297.343 143.286 296.918 142.815 296.601 142.208C296.293 141.592 296.139 140.887 296.139 140.094ZM302.243 140.122C302.243 139.646 302.149 139.24 301.963 138.904C301.776 138.559 301.524 138.297 301.207 138.12C300.889 137.933 300.549 137.84 300.185 137.84C299.821 137.84 299.485 137.929 299.177 138.106C298.869 138.283 298.617 138.545 298.421 138.89C298.234 139.226 298.141 139.627 298.141 140.094C298.141 140.561 298.234 140.971 298.421 141.326C298.617 141.671 298.869 141.937 299.177 142.124C299.494 142.311 299.83 142.404 300.185 142.404C300.549 142.404 300.889 142.315 301.207 142.138C301.524 141.951 301.776 141.69 301.963 141.354C302.149 141.009 302.243 140.598 302.243 140.122ZM305.627 140.122C305.627 139.319 305.79 138.619 306.117 138.022C306.444 137.415 306.896 136.949 307.475 136.622C308.054 136.286 308.716 136.118 309.463 136.118C310.424 136.118 311.218 136.361 311.843 136.846C312.478 137.322 312.902 137.994 313.117 138.862H311.003C310.891 138.526 310.7 138.265 310.429 138.078C310.168 137.882 309.841 137.784 309.449 137.784C308.889 137.784 308.446 137.989 308.119 138.4C307.792 138.801 307.629 139.375 307.629 140.122C307.629 140.859 307.792 141.433 308.119 141.844C308.446 142.245 308.889 142.446 309.449 142.446C310.242 142.446 310.76 142.091 311.003 141.382H313.117C312.902 142.222 312.478 142.889 311.843 143.384C311.208 143.879 310.415 144.126 309.463 144.126C308.716 144.126 308.054 143.963 307.475 143.636C306.896 143.3 306.444 142.833 306.117 142.236C305.79 141.629 305.627 140.925 305.627 140.122ZM321.763 139.954C321.763 140.234 321.744 140.486 321.707 140.71H316.037C316.084 141.27 316.28 141.709 316.625 142.026C316.97 142.343 317.395 142.502 317.899 142.502C318.627 142.502 319.145 142.189 319.453 141.564H321.567C321.343 142.311 320.914 142.927 320.279 143.412C319.644 143.888 318.865 144.126 317.941 144.126C317.194 144.126 316.522 143.963 315.925 143.636C315.337 143.3 314.875 142.829 314.539 142.222C314.212 141.615 314.049 140.915 314.049 140.122C314.049 139.319 314.212 138.615 314.539 138.008C314.866 137.401 315.323 136.935 315.911 136.608C316.499 136.281 317.176 136.118 317.941 136.118C318.678 136.118 319.336 136.277 319.915 136.594C320.503 136.911 320.956 137.364 321.273 137.952C321.6 138.531 321.763 139.198 321.763 139.954ZM319.733 139.394C319.724 138.89 319.542 138.489 319.187 138.19C318.832 137.882 318.398 137.728 317.885 137.728C317.4 137.728 316.989 137.877 316.653 138.176C316.326 138.465 316.126 138.871 316.051 139.394H319.733ZM325.154 137.378C325.406 137.005 325.751 136.701 326.19 136.468C326.638 136.235 327.146 136.118 327.716 136.118C328.378 136.118 328.976 136.281 329.508 136.608C330.049 136.935 330.474 137.401 330.782 138.008C331.099 138.605 331.258 139.301 331.258 140.094C331.258 140.887 331.099 141.592 330.782 142.208C330.474 142.815 330.049 143.286 329.508 143.622C328.976 143.958 328.378 144.126 327.716 144.126C327.137 144.126 326.628 144.014 326.19 143.79C325.76 143.557 325.415 143.258 325.154 142.894V144H323.194V133.64H325.154V137.378ZM329.256 140.094C329.256 139.627 329.158 139.226 328.962 138.89C328.775 138.545 328.523 138.283 328.206 138.106C327.898 137.929 327.562 137.84 327.198 137.84C326.843 137.84 326.507 137.933 326.19 138.12C325.882 138.297 325.63 138.559 325.434 138.904C325.247 139.249 325.154 139.655 325.154 140.122C325.154 140.589 325.247 140.995 325.434 141.34C325.63 141.685 325.882 141.951 326.19 142.138C326.507 142.315 326.843 142.404 327.198 142.404C327.562 142.404 327.898 142.311 328.206 142.124C328.523 141.937 328.775 141.671 328.962 141.326C329.158 140.981 329.256 140.57 329.256 140.094ZM336.126 144.126C335.379 144.126 334.707 143.963 334.11 143.636C333.512 143.3 333.041 142.829 332.696 142.222C332.36 141.615 332.192 140.915 332.192 140.122C332.192 139.329 332.364 138.629 332.71 138.022C333.064 137.415 333.545 136.949 334.152 136.622C334.758 136.286 335.435 136.118 336.182 136.118C336.928 136.118 337.605 136.286 338.212 136.622C338.818 136.949 339.294 137.415 339.64 138.022C339.994 138.629 340.172 139.329 340.172 140.122C340.172 140.915 339.99 141.615 339.626 142.222C339.271 142.829 338.786 143.3 338.17 143.636C337.563 143.963 336.882 144.126 336.126 144.126ZM336.126 142.418C336.48 142.418 336.812 142.334 337.12 142.166C337.437 141.989 337.689 141.727 337.876 141.382C338.062 141.037 338.156 140.617 338.156 140.122C338.156 139.385 337.96 138.82 337.568 138.428C337.185 138.027 336.714 137.826 336.154 137.826C335.594 137.826 335.122 138.027 334.74 138.428C334.366 138.82 334.18 139.385 334.18 140.122C334.18 140.859 334.362 141.429 334.726 141.83C335.099 142.222 335.566 142.418 336.126 142.418ZM345.054 144.126C344.307 144.126 343.635 143.963 343.038 143.636C342.44 143.3 341.969 142.829 341.624 142.222C341.288 141.615 341.12 140.915 341.12 140.122C341.12 139.329 341.292 138.629 341.638 138.022C341.992 137.415 342.473 136.949 343.08 136.622C343.686 136.286 344.363 136.118 345.11 136.118C345.856 136.118 346.533 136.286 347.14 136.622C347.746 136.949 348.222 137.415 348.568 138.022C348.922 138.629 349.1 139.329 349.1 140.122C349.1 140.915 348.918 141.615 348.554 142.222C348.199 142.829 347.714 143.3 347.098 143.636C346.491 143.963 345.81 144.126 345.054 144.126ZM345.054 142.418C345.408 142.418 345.74 142.334 346.048 142.166C346.365 141.989 346.617 141.727 346.804 141.382C346.99 141.037 347.084 140.617 347.084 140.122C347.084 139.385 346.888 138.82 346.496 138.428C346.113 138.027 345.642 137.826 345.082 137.826C344.522 137.826 344.05 138.027 343.668 138.428C343.294 138.82 343.108 139.385 343.108 140.122C343.108 140.859 343.29 141.429 343.654 141.83C344.027 142.222 344.494 142.418 345.054 142.418ZM355.129 144L352.497 140.696V144H350.537V133.64H352.497V139.534L355.101 136.244H357.649L354.233 140.136L357.677 144H355.129Z" fill="black"></path><circle cx="239" cy="106" r="7" fill="#7AD9D7"></circle><path d="M356 301H244C225.775 301 211 315.775 211 334C211 352.225 225.775 367 244 367H316C338.091 367 356 349.091 356 327V301Z" fill="#F3F3F3"></path><path d="M273.908 336.446H277.128V338H271.948V328.228H273.908V336.446ZM279.368 329.32C279.023 329.32 278.734 329.213 278.5 328.998C278.276 328.774 278.164 328.499 278.164 328.172C278.164 327.845 278.276 327.575 278.5 327.36C278.734 327.136 279.023 327.024 279.368 327.024C279.714 327.024 279.998 327.136 280.222 327.36C280.456 327.575 280.572 327.845 280.572 328.172C280.572 328.499 280.456 328.774 280.222 328.998C279.998 329.213 279.714 329.32 279.368 329.32ZM280.334 330.244V338H278.374V330.244H280.334ZM286.569 330.132C287.493 330.132 288.239 330.426 288.809 331.014C289.378 331.593 289.663 332.405 289.663 333.45V338H287.703V333.716C287.703 333.1 287.549 332.629 287.241 332.302C286.933 331.966 286.513 331.798 285.981 331.798C285.439 331.798 285.01 331.966 284.693 332.302C284.385 332.629 284.231 333.1 284.231 333.716V338H282.271V330.244H284.231V331.21C284.492 330.874 284.823 330.613 285.225 330.426C285.635 330.23 286.083 330.132 286.569 330.132ZM296.119 338L293.487 334.696V338H291.527V327.64H293.487V333.534L296.091 330.244H298.639L295.223 334.136L298.667 338H296.119ZM306.912 333.954C306.912 334.234 306.894 334.486 306.856 334.71H301.186C301.233 335.27 301.429 335.709 301.774 336.026C302.12 336.343 302.544 336.502 303.048 336.502C303.776 336.502 304.294 336.189 304.602 335.564H306.716C306.492 336.311 306.063 336.927 305.428 337.412C304.794 337.888 304.014 338.126 303.09 338.126C302.344 338.126 301.672 337.963 301.074 337.636C300.486 337.3 300.024 336.829 299.688 336.222C299.362 335.615 299.198 334.915 299.198 334.122C299.198 333.319 299.362 332.615 299.688 332.008C300.015 331.401 300.472 330.935 301.06 330.608C301.648 330.281 302.325 330.118 303.09 330.118C303.828 330.118 304.486 330.277 305.064 330.594C305.652 330.911 306.105 331.364 306.422 331.952C306.749 332.531 306.912 333.198 306.912 333.954ZM304.882 333.394C304.873 332.89 304.691 332.489 304.336 332.19C303.982 331.882 303.548 331.728 303.034 331.728C302.549 331.728 302.138 331.877 301.802 332.176C301.476 332.465 301.275 332.871 301.2 333.394H304.882ZM307.839 334.094C307.839 333.31 307.993 332.615 308.301 332.008C308.618 331.401 309.048 330.935 309.589 330.608C310.13 330.281 310.732 330.118 311.395 330.118C311.899 330.118 312.38 330.23 312.837 330.454C313.294 330.669 313.658 330.958 313.929 331.322V327.64H315.917V338H313.929V336.852C313.686 337.235 313.346 337.543 312.907 337.776C312.468 338.009 311.96 338.126 311.381 338.126C310.728 338.126 310.13 337.958 309.589 337.622C309.048 337.286 308.618 336.815 308.301 336.208C307.993 335.592 307.839 334.887 307.839 334.094ZM313.943 334.122C313.943 333.646 313.85 333.24 313.663 332.904C313.476 332.559 313.224 332.297 312.907 332.12C312.59 331.933 312.249 331.84 311.885 331.84C311.521 331.84 311.185 331.929 310.877 332.106C310.569 332.283 310.317 332.545 310.121 332.89C309.934 333.226 309.841 333.627 309.841 334.094C309.841 334.561 309.934 334.971 310.121 335.326C310.317 335.671 310.569 335.937 310.877 336.124C311.194 336.311 311.53 336.404 311.885 336.404C312.249 336.404 312.59 336.315 312.907 336.138C313.224 335.951 313.476 335.69 313.663 335.354C313.85 335.009 313.943 334.598 313.943 334.122ZM319.791 328.228V338H317.831V328.228H319.791ZM326.026 330.132C326.95 330.132 327.696 330.426 328.266 331.014C328.835 331.593 329.12 332.405 329.12 333.45V338H327.16V333.716C327.16 333.1 327.006 332.629 326.698 332.302C326.39 331.966 325.97 331.798 325.438 331.798C324.896 331.798 324.467 331.966 324.15 332.302C323.842 332.629 323.688 333.1 323.688 333.716V338H321.728V330.244H323.688V331.21C323.949 330.874 324.28 330.613 324.682 330.426C325.092 330.23 325.54 330.132 326.026 330.132Z" fill="black"></path><circle cx="356" cy="301" r="7" fill="#7AD9D7"></circle><path fill-rule="evenodd" clip-rule="evenodd" d="M299.99 254.084L308.09 251.103C308.675 250.883 308.785 251.324 308.986 252.539L310.833 264.186C311.089 265.842 313.887 266.652 315.13 264.039L323.212 247.092C323.907 245.62 324.108 244.976 325.187 244.59L336.506 240.578L336.268 240.1C334.915 237.432 334.494 236.236 332.574 236.181C330.49 236.125 329.063 237.432 327.089 237.726C325.242 238.002 324.693 237.524 324.437 236.585C324.236 235.831 324.638 235.15 324.382 234.396C324.254 234.028 322.389 234.469 323.87 232.592C323.98 232.445 322.755 232.464 322.682 232.022C322.481 231.47 323.194 231.36 322.974 230.513C322.773 229.722 321.603 230.329 321.219 229.979C320.798 229.611 320.908 229.059 320.963 228.507C321.073 227.127 322.609 225.729 322.005 224.478C319.902 219.969 321.493 218.111 321.95 216.731C320.067 211.781 322.938 206.813 330.636 207.659C329.575 205.083 327.308 203.372 323.797 204.218L290.902 212.112C288.506 212.683 286.879 215.185 287.007 217.909C288.269 217.32 289.604 216.97 290.938 216.933C293.937 216.897 299.971 219.362 301.306 223.098C299.13 221.331 299.405 224.054 299.88 224.625C301.434 226.502 301.965 228.342 301.946 230.237C301.946 230.771 301.27 231.58 301.818 232.261C303.007 233.752 303.446 234.506 304.616 235.831C305.329 236.641 305.347 236.99 304.799 237.413C304.287 237.818 303.409 238.407 303.281 238.609C303.208 238.738 303.153 239.566 303.519 239.989C303.647 240.137 303.903 240.229 303.884 240.413C303.848 240.836 302.824 241.167 303.062 241.296C303.427 241.517 303.756 241.811 303.738 242.142C303.72 242.382 302.897 242.658 302.842 243.154C302.787 243.559 303.116 243.964 303.208 244.35C303.318 244.792 303.336 245.528 302.97 246.062C302.531 246.724 302.038 247.184 301.453 247.037C300.575 246.816 299.185 246.614 298.307 246.779C297.265 246.982 296.534 247.074 296.113 248.067C295.327 249.871 294.339 251.251 293.224 252.428C294.486 254.36 296.863 255.207 300.008 254.048L299.99 254.084Z" fill="black"></path><path d="M87.4098 57.2617C86.5433 57.2617 85.8452 57.9598 85.8452 58.8263C85.8452 59.6927 86.5483 60.3908 87.4098 60.3908C88.2762 60.3908 88.9743 59.6927 88.9743 58.8263C88.9743 57.9648 88.2762 57.2617 87.4098 57.2617Z" fill="black"></path><path d="M80.4515 59.2686C76.8273 59.2686 73.8765 62.2194 73.8765 65.8436C73.8765 69.4679 76.8273 72.4187 80.4515 72.4187C84.0757 72.4187 87.0266 69.4679 87.0266 65.8436C87.0266 62.2194 84.0757 59.2686 80.4515 59.2686ZM80.4515 70.0521C78.1294 70.0521 76.2431 68.1657 76.2431 65.8436C76.2431 63.5216 78.1344 61.6352 80.4515 61.6352C82.7736 61.6352 84.6599 63.5216 84.6599 65.8436C84.6599 68.1657 82.7736 70.0521 80.4515 70.0521Z" fill="black"></path><path d="M85.6704 79.1863H75.0158C70.5945 79.1863 67 75.5918 67 71.1705V60.5158C67 56.0945 70.5945 52.5 75.0158 52.5H85.6704C90.0917 52.5 93.6862 56.0945 93.6862 60.5158V71.1705C93.6862 75.5918 90.0917 79.1863 85.6704 79.1863ZM75.0158 55.0102C71.9808 55.0102 69.5102 57.4808 69.5102 60.5158V71.1705C69.5102 74.2055 71.9808 76.6761 75.0158 76.6761H85.6704C88.7054 76.6761 91.176 74.2055 91.176 71.1705V60.5158C91.176 57.4808 88.7054 55.0102 85.6704 55.0102H75.0158Z" fill="black"></path><path d="M273.307 139.93L273.832 136.771H270.591V134.72C270.591 133.858 271.051 133.017 272.496 133.017H273.964V130.33C273.964 130.33 272.628 130.125 271.358 130.125C268.708 130.125 266.956 131.643 266.956 134.371V136.771H264V139.93H266.956V147.561H270.591V139.93H273.307Z" fill="black"></path><path d="M559.28 142.323C559.28 139.377 556.902 137 553.957 137H540.323C537.377 137 535 139.377 535 142.323V148.677C535 151.623 537.377 154 540.323 154H553.957C556.902 154 559.28 151.623 559.28 148.677V142.323ZM551.243 145.984L545.12 149.014C544.889 149.14 544.068 148.972 544.068 148.698V142.491C544.068 142.218 544.889 142.05 545.12 142.176L550.969 145.353C551.243 145.479 551.495 145.837 551.243 145.984Z" fill="black"></path><path d="M39.2597 261.715C40.3662 261.698 41.4664 261.708 42.5653 261.698C42.6318 262.992 43.0973 264.311 44.0446 265.226C44.9901 266.164 46.3274 266.593 47.6286 266.738V270.143C46.4092 270.103 45.1841 269.849 44.0776 269.324C43.5957 269.106 43.1467 268.825 42.7073 268.538C42.7016 271.008 42.7174 273.475 42.6914 275.936C42.6255 277.118 42.2355 278.294 41.5482 279.268C40.4423 280.889 38.5229 281.946 36.5514 281.979C35.3422 282.049 34.1342 281.719 33.1038 281.111C31.3962 280.104 30.1945 278.261 30.0195 276.283C29.9975 275.864 29.9941 275.444 30.0094 275.025C30.1616 273.416 30.9574 271.877 32.1926 270.83C33.5927 269.611 35.554 269.03 37.3903 269.373C37.4075 270.626 37.3574 271.877 37.3574 273.129C36.5185 272.858 35.5381 272.934 34.8051 273.443C34.2688 273.796 33.8635 274.316 33.6517 274.922C33.4767 275.351 33.5268 275.827 33.5369 276.283C33.7379 277.67 35.0721 278.836 36.4963 278.71C37.4404 278.7 38.3453 278.152 38.8374 277.35C38.9965 277.069 39.1747 276.782 39.1842 276.451C39.2673 274.939 39.2343 273.433 39.2445 271.921C39.2514 268.512 39.2343 265.114 39.2603 261.716L39.2597 261.715Z" fill="black"></path><path fill-rule="evenodd" clip-rule="evenodd" d="M242 326.42C242 326.044 242.15 325.682 242.416 325.416C242.682 325.15 243.044 325 243.42 325H257.578C257.765 325 257.95 325.036 258.122 325.107C258.295 325.179 258.452 325.283 258.584 325.415C258.716 325.547 258.821 325.704 258.892 325.876C258.963 326.049 259 326.234 259 326.42V340.578C259 340.765 258.964 340.95 258.892 341.122C258.821 341.295 258.716 341.452 258.584 341.584C258.452 341.716 258.296 341.821 258.123 341.892C257.951 341.963 257.766 342 257.579 342H243.42C243.234 342 243.049 341.963 242.877 341.892C242.704 341.82 242.548 341.716 242.416 341.584C242.284 341.452 242.179 341.295 242.108 341.123C242.037 340.95 242 340.766 242 340.579V326.42ZM248.729 331.482H251.031V332.638C251.363 331.973 252.213 331.375 253.49 331.375C255.939 331.375 256.52 332.699 256.52 335.127V339.626H254.041V335.681C254.041 334.297 253.709 333.517 252.865 333.517C251.695 333.517 251.208 334.359 251.208 335.681V339.626H248.729V331.482ZM244.479 339.52H246.958V331.375H244.479V339.52V339.52ZM247.312 328.718C247.317 328.931 247.279 329.142 247.201 329.339C247.123 329.537 247.007 329.716 246.858 329.868C246.71 330.02 246.533 330.141 246.337 330.223C246.141 330.305 245.931 330.348 245.719 330.348C245.506 330.348 245.296 330.305 245.101 330.223C244.905 330.141 244.728 330.02 244.579 329.868C244.431 329.716 244.314 329.537 244.236 329.339C244.158 329.142 244.12 328.931 244.125 328.718C244.134 328.302 244.306 327.905 244.604 327.614C244.902 327.322 245.302 327.159 245.719 327.159C246.135 327.159 246.536 327.322 246.833 327.614C247.131 327.905 247.303 328.302 247.312 328.718Z" fill="black"></path><path fill-rule="evenodd" clip-rule="evenodd" d="M494 344C488.5 344 484 348.5 484 354C484 359.5 488.5 364 494 364C499.5 364 504 359.5 504 354C504 348.5 499.55 344 494 344ZM498.6 358.45C498.4 358.75 498.05 358.85 497.75 358.65C495.4 357.2 492.45 356.9 488.95 357.7C488.6 357.8 488.3 357.55 488.2 357.25C488.1 356.9 488.35 356.6 488.65 356.5C492.45 355.65 495.75 356 498.35 357.6C498.7 357.75 498.75 358.15 498.6 358.45ZM499.8 355.7C499.55 356.05 499.1 356.2 498.75 355.95C496.05 354.3 491.95 353.8 488.8 354.8C488.4 354.9 487.95 354.7 487.85 354.3C487.75 353.9 487.95 353.45 488.35 353.35C492 352.25 496.5 352.8 499.6 354.7C499.9 354.85 500.05 355.35 499.8 355.7ZM499.9 352.9C496.7 351 491.35 350.8 488.3 351.75C487.8 351.9 487.3 351.6 487.15 351.15C487 350.65 487.3 350.15 487.75 350C491.3 348.95 497.15 349.15 500.85 351.35C501.3 351.6 501.45 352.2 501.2 352.65C500.95 353 500.35 353.15 499.9 352.9Z" fill="black"></path></svg>