<?xml version="1.0" encoding="UTF-8"?>
<svg xmlns="http://www.w3.org/2000/svg" width="183" height="62" viewBox="0 0 183 62" fill="none">
  <path d="M85.1733 23.5136L83.875 22.2807C82.7596 23.3847 81.4065 23.9368 79.8339 23.9368C78.2614 23.9368 76.9265 23.3663 75.7929 22.2439C74.6592 21.1215 74.0923 19.7598 74.0923 18.1589C74.0923 16.5581 74.6592 15.1964 75.7929 14.074C76.9083 12.9515 78.2614 12.3811 79.8339 12.3811C81.4065 12.3811 82.7596 12.9331 83.875 14.0556L85.1733 12.8043C83.7104 11.3323 81.9367 10.5963 79.8522 10.5963C77.7677 10.5963 75.994 11.3323 74.5312 12.8227C73.0683 14.3132 72.3369 16.0981 72.3369 18.1589C72.3369 20.2198 73.0683 22.0047 74.5312 23.5136C76.0123 25.004 77.8042 25.74 79.8522 25.74C81.9002 25.74 83.7104 25.004 85.1733 23.5136ZM102.27 18.1589C102.27 16.0613 101.539 14.2764 100.058 12.8043C98.5947 11.3323 96.8211 10.5963 94.7365 10.5963C92.652 10.5963 90.8783 11.3323 89.4155 12.8043C87.9526 14.2948 87.2212 16.0981 87.2212 18.1589C87.2212 20.2198 87.9526 22.0231 89.4155 23.5136C90.8966 25.004 92.6703 25.74 94.7365 25.74C96.8028 25.74 98.5947 25.004 100.058 23.5136C101.539 22.0231 102.27 20.2382 102.27 18.1589ZM100.46 18.1589C100.46 19.7598 99.893 21.1215 98.7776 22.2439C97.6622 23.3663 96.3091 23.9368 94.7182 23.9368C93.1274 23.9368 91.8109 23.3663 90.6772 22.2439C89.5435 21.1215 88.9766 19.7598 88.9766 18.1589C88.9766 16.5581 89.5435 15.1964 90.6772 14.074C91.7926 12.9515 93.1457 12.3811 94.7182 12.3811C96.2908 12.3811 97.6622 12.9515 98.7776 14.074C99.893 15.1964 100.46 16.5581 100.46 18.1589ZM121.653 25.372V23.5688H115.198V10.9275H113.406V25.3536H121.653V25.372ZM134.964 19.9622V10.9275H133.154V19.9622C133.154 21.0295 132.77 21.9679 132.002 22.7591C131.234 23.532 130.302 23.9184 129.223 23.9184C128.144 23.9184 127.175 23.532 126.407 22.7591C125.639 21.9679 125.255 21.0295 125.255 19.9622V10.9275H123.463V19.9622C123.463 21.5447 124.03 22.8879 125.145 24.0288C126.279 25.1696 127.632 25.74 129.204 25.74C130.777 25.74 132.13 25.1696 133.264 24.0288C134.379 22.9063 134.946 21.5447 134.946 19.9622H134.964ZM149.977 18.1405C149.977 16.1717 149.282 14.4604 147.874 13.0435C146.484 11.6267 144.784 10.9275 142.809 10.9275H137.433V25.3536H142.809C144.784 25.3536 146.484 24.6544 147.874 23.2559C149.282 21.8391 149.977 20.1278 149.977 18.1405ZM148.185 18.1405C148.185 19.6126 147.654 20.8822 146.612 21.9863C145.533 23.0535 144.253 23.5688 142.791 23.5688H139.207V12.7491H142.791C144.272 12.7491 145.552 13.2828 146.612 14.3316C147.673 15.3988 148.185 16.6685 148.185 18.1405ZM163.746 25.3536V23.5504H154.713L163.746 12.7307V10.9091H152.262V12.7307H161.295L152.262 23.5504V25.3536H163.746ZM168.006 25.3536V10.9275H166.214V25.3536H168.006ZM180.714 25.3536V23.5504H172.449V19.0422H178.904V17.2205H172.449V12.7307H180.714V10.9091H170.676V25.3352H180.714V25.3536Z" fill="#1D1D1B"></path>
  <path d="M74.2753 39.7062V46.7353H73.6719V30.3402H78.7552C80.4375 30.3402 81.7357 30.7634 82.65 31.6283C83.5643 32.4747 84.0214 33.6156 84.0214 35.014C84.0214 36.4125 83.5643 37.5717 82.6683 38.4181C81.754 39.2646 80.4558 39.6878 78.7735 39.6878H74.2753V39.7062ZM74.2753 39.099H78.7552C80.2912 39.099 81.4615 38.7125 82.2477 37.9397C83.034 37.1669 83.418 36.2101 83.418 35.0508C83.418 33.8916 83.034 32.8795 82.2477 32.1251C81.4797 31.3523 80.3095 30.9658 78.7552 30.9658H74.2753V39.099ZM98.9606 39.7798C98.9606 41.9879 98.412 43.7543 97.3332 45.0424C96.2361 46.3304 94.7366 46.9929 92.835 46.9929C90.9333 46.9929 89.4156 46.3488 88.3185 45.0424C87.2214 43.7543 86.6728 41.9879 86.6728 39.7798V37.3325C86.6728 35.1244 87.2214 33.3763 88.3002 32.0699C89.379 30.7634 90.8784 30.1194 92.7984 30.1194C94.7184 30.1194 96.2178 30.7634 97.3149 32.0699C98.412 33.3763 98.9606 35.1244 98.9606 37.3325V39.7798ZM98.3572 37.2957C98.3572 35.29 97.8817 33.6892 96.9126 32.4931C95.9435 31.2971 94.5904 30.7082 92.8167 30.7082C91.043 30.7082 89.6899 31.2971 88.739 32.4931C87.7882 33.6892 87.3128 35.2716 87.3128 37.2957V39.7798C87.3128 41.8039 87.7882 43.4047 88.739 44.6008C89.6899 45.7968 91.0613 46.3856 92.835 46.3856C94.6087 46.3856 95.9801 45.7968 96.9309 44.6192C97.8817 43.4415 98.3572 41.8223 98.3572 39.7982V37.3141V37.2957ZM105.178 42.9079L105.891 45.5576H105.964L106.677 42.9079L110.535 30.3402H111.212L115.033 42.9079L115.728 45.5576H115.801L116.533 42.9079L119.897 30.3402H120.556L116.167 46.7353H115.491L111.449 33.0635L110.919 31.4259H110.846L110.334 33.0635L106.256 46.7353H105.58L101.191 30.3402H101.868L105.251 42.9079H105.178ZM124.487 46.7353H123.884V30.3402H124.487V46.7353ZM137.854 38.4917H130.027V46.128H139.006V46.7353H129.424V30.3402H139.006V30.9474H130.027V37.8845H137.854V38.4917ZM142.059 46.7353V30.3402H146.905C148.77 30.3402 150.361 31.021 151.677 32.3643C152.976 33.7075 153.634 35.4372 153.634 37.5349V39.5406C153.634 41.6383 152.976 43.3679 151.677 44.7112C150.379 46.0544 148.788 46.7353 146.905 46.7353H142.059ZM142.663 30.9474V46.128H146.905C148.605 46.128 150.05 45.5024 151.239 44.2512C152.427 42.9999 153.03 41.4359 153.03 39.5406V37.4981C153.03 35.6212 152.427 34.0572 151.239 32.8059C150.05 31.5547 148.605 30.929 146.905 30.929H142.663V30.9474ZM156.779 46.128H167.549V46.7353H155.956V46.2384L166.361 30.9474H156.413V30.3402H167.202V30.7634L156.797 46.128H156.779ZM179.416 41.8407H171.462L169.634 46.7353H168.975L175.064 30.3402H175.814L181.903 46.7353H181.245L179.416 41.8407ZM171.682 41.2334H179.179L175.778 32.0699L175.467 31.1131H175.394L175.101 32.0699L171.7 41.2334H171.682ZM181.775 46.7353C181.208 47.2505 180.788 47.6921 180.532 48.0417C180.257 48.3913 180.129 48.7961 180.129 49.2378C180.129 49.4034 180.184 49.6058 180.312 49.8082C180.44 50.029 180.696 50.1394 181.08 50.1394C181.336 50.1394 181.556 50.1026 181.757 50.029C181.94 49.9554 182.141 49.845 182.324 49.7162L182.507 50.2498C182.324 50.3786 182.123 50.5074 181.903 50.5994C181.665 50.6914 181.409 50.7466 181.099 50.7466C180.641 50.7466 180.276 50.6178 179.983 50.3418C179.691 50.0842 179.544 49.6978 179.544 49.2378C179.544 48.7777 179.709 48.3177 180.02 47.8577C180.331 47.3793 180.733 46.9377 181.227 46.5145L181.812 46.7353H181.775Z" fill="#1D1D1B"></path>
  <path fill-rule="evenodd" clip-rule="evenodd" d="M12.9897 50.0844L21.0901 47.1035C21.6752 46.8827 21.785 47.3243 21.9861 48.5387L23.8329 60.1864C24.0889 61.8425 26.8866 62.6521 28.13 60.0392L36.2121 43.0921C36.907 41.6201 37.1081 40.976 38.187 40.5896L49.5056 36.5783L49.2679 36.0998C47.9148 33.4317 47.4942 32.2357 45.5742 32.1805C43.4897 32.1253 42.0634 33.4317 40.0886 33.7262C38.2418 34.0022 37.6932 33.5238 37.4372 32.5853C37.2361 31.8309 37.6384 31.1501 37.3824 30.3956C37.2544 30.0276 35.3893 30.4692 36.8704 28.5924C36.9801 28.4452 35.755 28.4636 35.6819 28.0219C35.4807 27.4699 36.1938 27.3595 35.9744 26.5131C35.7733 25.7219 34.603 26.3291 34.219 25.9795C33.7985 25.6114 33.9082 25.0594 33.963 24.5074C34.0727 23.1273 35.6087 21.7289 35.0053 20.4776C32.9025 15.9695 34.4933 14.111 34.9504 12.7309C33.067 7.78116 35.9378 2.81296 43.636 3.6594C42.5754 1.0833 40.3081 -0.627968 36.7973 0.218464L3.90184 8.11237C1.50645 8.68279 -0.120949 11.1853 0.00704848 13.9086C1.26874 13.3198 2.60358 12.9702 3.93841 12.9334C6.93721 12.8966 12.9714 15.3623 14.3062 19.0976C12.1303 17.3311 12.4045 20.0544 12.88 20.6249C14.4342 22.5017 14.9645 24.3418 14.9462 26.2371C14.9462 26.7707 14.2697 27.5803 14.8182 28.2611C16.0068 29.7516 16.4456 30.506 17.6159 31.8309C18.329 32.6405 18.3473 32.9901 17.7987 33.4133C17.2867 33.8182 16.409 34.407 16.281 34.6094C16.2079 34.7382 16.1531 35.5662 16.5188 35.9894C16.6468 36.1367 16.9028 36.2287 16.8845 36.4127C16.8479 36.8359 15.8239 37.1671 16.0616 37.2959C16.4273 37.5167 16.7565 37.8111 16.7382 38.1423C16.7199 38.3815 15.8971 38.6576 15.8422 39.1544C15.7873 39.5592 16.1165 39.964 16.2079 40.3504C16.3176 40.792 16.3359 41.5281 15.9702 42.0617C15.5313 42.7241 15.0376 43.1841 14.4525 43.0369C13.5748 42.8161 12.1851 42.6137 11.3074 42.7793C10.2652 42.9817 9.53374 43.0737 9.11318 44.0674C8.3269 45.8706 7.33949 47.2507 6.22408 48.4283C7.48578 50.3604 9.86287 51.2068 13.008 50.0476L12.9897 50.0844Z" fill="#1D1D1B"></path>
</svg>
